<?xml version="1.0" standalone="no"?>
<!DOCTYPE svg PUBLIC "-//W3C//DTD SVG 20010904//EN"
 "http://www.w3.org/TR/2001/REC-SVG-20010904/DTD/svg10.dtd">
<svg version="1.0" xmlns="http://www.w3.org/2000/svg"
 width="160.000000pt" height="148.000000pt" viewBox="0 0 160.000000 148.000000"
 preserveAspectRatio="xMidYMid meet">

<g transform="translate(0.000000,148.000000) scale(0.100000,-0.100000)"
fill="#000000" stroke="none">
<path d="M474 1331 c-102 -26 -216 -128 -249 -224 -32 -93 -33 -425 -2 -398
15 12 81 -14 72 -28 -3 -6 3 -15 14 -21 22 -11 37 2 25 22 -4 6 -3 8 4 4 7 -4
12 40 14 146 3 144 5 156 31 210 30 61 92 115 156 137 47 15 484 14 528 -2 65
-24 119 -73 149 -133 l29 -59 3 -228 c3 -252 -2 -289 -58 -365 -36 -51 -89
-83 -170 -103 -36 -10 -57 -18 -47 -18 9 -1 25 -5 35 -10 9 -5 38 -19 65 -31
26 -12 47 -28 47 -36 0 -8 8 -14 17 -14 15 0 14 -2 -3 -15 -13 -11 -2 -9 36 6
109 41 196 142 219 255 14 71 15 571 1 632 -26 110 -93 195 -196 247 l-59 30
-315 2 c-173 1 -329 -2 -346 -6z"/>
<path d="M545 1083 c-46 -24 -66 -45 -86 -88 -16 -35 -18 -66 -17 -240 0 -110
3 -190 5 -177 5 26 19 29 28 5 5 -17 51 -43 103 -58 12 -3 22 -10 22 -14 0 -4
21 -18 46 -32 76 -40 81 -44 76 -57 -2 -7 6 -12 21 -12 59 0 60 -15 2 -21 -38
-3 0 -6 103 -7 207 -2 248 12 294 101 17 35 19 57 16 272 l-3 233 -31 39 c-55
69 -71 72 -324 72 -186 0 -230 -3 -255 -16z m527 -70 c39 -36 5 -102 -47 -89
-37 9 -52 48 -31 81 19 29 51 32 78 8z m-166 -78 c56 -28 96 -80 114 -144 40
-149 -109 -304 -259 -270 -114 26 -175 102 -175 219 0 95 30 146 114 194 61
35 137 35 206 1z"/>
<path d="M743 865 c-97 -42 -96 -203 1 -249 43 -20 76 -20 118 0 99 47 104
189 9 242 -44 25 -82 27 -128 7z"/>
</g>
</svg>
